<svg xmlns="http://www.w3.org/2000/svg" xmlns:xlink="http://www.w3.org/1999/xlink" aria-hidden="true" role="img" class="iconify iconify--material-symbols" width="32" height="32" preserveAspectRatio="xMidYMid meet" viewBox="0 0 24 24"><path fill="#1e40af" d="M12 22q-2.075 0-3.9-.788q-1.825-.787-3.175-2.137q-1.35-1.35-2.137-3.175Q2 14.075 2 12t.788-3.9q.787-1.825 2.137-3.175q1.35-1.35 3.175-2.138Q9.925 2 12 2t3.9.787q1.825.788 3.175 2.138q1.35 1.35 2.137 3.175Q22 9.925 22 12t-.788 3.9q-.787 1.825-2.137 3.175q-1.35 1.35-3.175 2.137Q14.075 22 12 22Zm0-2q3.35 0 5.675-2.325Q20 15.35 20 12q0-3.35-2.325-5.675Q15.35 4 12 4Q8.65 4 6.325 6.325Q4 8.65 4 12q0 3.35 2.325 5.675Q8.65 20 12 20Zm0-8Zm-5.375 1.9h.6v-3.8H6.8l-1.125.8l.325.475l.625-.45Zm1.425.025h2.5v-.575H8.9v-.05l.975-1q.3-.3.45-.6q.15-.3.15-.6q0-.5-.337-.8q-.338-.3-.863-.3q-.45 0-.775.225t-.45.625l.525.25q.1-.25.275-.375q.175-.125.425-.125q.275 0 .438.138q.162.137.162.387q0 .3-.425.775l-1.4 1.45Zm3.525-.025q.2 0 .325-.125t.125-.325q0-.2-.125-.325T11.575 13q-.2 0-.325.125t-.125.325q0 .2.125.325t.325.125Zm0-2.025q.2 0 .325-.125t.125-.325q0-.2-.125-.325t-.325-.125q-.2 0-.325.125t-.125.325q0 .2.125.325t.325.125Zm2.3 2.125q.575 0 .925-.325q.35-.325.35-.825q0-.35-.175-.588q-.175-.237-.475-.362v-.025q.25-.125.387-.338q.138-.212.138-.487q0-.425-.35-.738q-.35-.312-.85-.312q-.425 0-.737.212q-.313.213-.463.588l.55.225q.1-.225.263-.337q.162-.113.387-.113q.275 0 .425.137q.15.138.15.338q0 .25-.187.412q-.188.163-.463.163h-.3v.575h.325q.35 0 .537.137q.188.138.188.413q0 .275-.2.462q-.2.188-.5.188q-.275 0-.437-.15q-.163-.15-.263-.475l-.575.225q.15.475.5.738q.35.262.85.262ZM17 14q.55 0 .938-.375q.387-.375.387-.925q0-.5-.325-.863q-.325-.362-.825-.362q-.05 0-.4.1l-.025-.025l.875-1.2l-.5-.35l-.975 1.4q-.3.425-.4.7q-.1.275-.1.525q0 .575.388.975q.387.4.962.4Zm-.025-.575q-.3 0-.513-.213q-.212-.212-.212-.512q0-.3.212-.512q.213-.213.513-.213q.3 0 .513.213q.212.212.212.512q0 .3-.212.512q-.213.213-.513.213Z"></path></svg>
