<?xml version="1.0" standalone="no"?>
<!DOCTYPE svg PUBLIC "-//W3C//DTD SVG 20010904//EN"
 "http://www.w3.org/TR/2001/REC-SVG-20010904/DTD/svg10.dtd">
<svg version="1.0" xmlns="http://www.w3.org/2000/svg"
 width="700.000000pt" height="700.000000pt" viewBox="0 0 700.000000 700.000000"
 preserveAspectRatio="xMidYMid meet">
<metadata>
Created by potrace 1.14, written by Peter Selinger 2001-2017
</metadata>
<g transform="translate(0.000000,700.000000) scale(0.100000,-0.100000)"
fill="#000000" stroke="none">
<path d="M3327 6414 c-1 -1 -38 -5 -82 -8 -44 -4 -91 -8 -105 -10 -14 -3 -47
-7 -73 -11 -413 -52 -900 -250 -1272 -518 -185 -133 -434 -368 -569 -537 -251
-316 -471 -760 -561 -1134 -17 -71 -54 -279 -60 -335 -3 -36 -9 -86 -12 -111
-14 -115 -8 -468 11 -610 14 -100 28 -187 36 -220 5 -19 11 -46 14 -60 64
-323 243 -729 454 -1030 234 -335 549 -627 904 -839 308 -184 736 -337 1053
-376 28 -4 61 -8 75 -11 136 -24 552 -23 725 1 377 53 625 129 959 297 734
368 1277 1042 1499 1858 22 80 54 236 62 305 4 33 9 71 11 85 23 169 23 552 0
710 -3 14 -7 43 -9 65 -26 193 -85 420 -157 605 -12 30 -26 69 -32 85 -24 66
-171 346 -232 443 -36 56 -105 155 -153 220 -113 151 -401 441 -517 522 -12 8
-27 20 -35 28 -7 7 -70 51 -140 96 -287 190 -594 327 -908 406 -65 16 -136 32
-157 36 -21 3 -48 8 -60 10 -11 2 -41 7 -66 10 -25 3 -56 7 -70 9 -84 14 -522
29 -533 19z m323 -588 c694 -26 1323 -374 1767 -978 202 -275 363 -697 398
-1043 4 -38 9 -81 11 -95 5 -37 4 -379 -1 -420 -2 -19 -6 -62 -10 -95 -11
-114 -64 -350 -105 -470 -112 -322 -289 -608 -535 -859 -270 -275 -575 -468
-921 -582 -73 -24 -147 -46 -166 -50 -18 -3 -37 -7 -43 -8 -5 -2 -21 -6 -35
-9 -14 -4 -41 -9 -60 -12 -19 -2 -44 -6 -55 -9 -22 -4 -115 -15 -185 -21 -56
-6 -371 -5 -425 0 -338 33 -595 106 -865 247 -518 269 -949 764 -1126 1292
-32 97 -59 190 -69 236 -13 65 -35 195 -39 240 -4 30 -8 75 -11 100 -6 49 -6
367 -1 415 2 17 7 59 11 95 68 647 427 1236 995 1635 215 150 536 291 775 339
44 9 91 19 105 21 14 3 45 8 70 11 25 3 51 7 59 10 8 2 75 7 150 11 75 3 137
7 139 8 2 2 11 1 20 -1 9 -1 78 -5 152 -8z"/>
<path d="M2687 4084 c-1 -1 -24 -4 -50 -7 -109 -13 -217 -88 -263 -183 -15
-30 -25 -56 -23 -58 2 -2 36 -19 75 -39 l71 -35 34 51 c45 67 93 92 179 92
113 -1 178 -64 167 -160 -10 -80 -59 -153 -207 -305 -45 -47 -135 -140 -201
-208 l-119 -123 0 -84 0 -84 48 -3 c26 -2 189 -2 363 0 l316 3 1 82 0 83 -239
-1 c-175 0 -239 3 -237 11 2 7 76 88 166 181 218 227 262 291 280 408 31 198
-86 349 -291 373 -37 5 -68 8 -70 6z"/>
<path d="M3951 4074 c-66 -14 -110 -34 -163 -76 -40 -31 -98 -112 -98 -137 0
-11 25 -26 76 -45 68 -27 77 -28 85 -13 40 71 107 111 186 110 134 -2 201
-113 136 -224 -27 -46 -104 -79 -184 -79 l-67 0 2 -82 1 -83 71 -2 c145 -4
216 -46 229 -137 23 -148 -134 -255 -287 -197 -32 12 -76 64 -100 119 -11 24
-25 42 -31 39 -7 -2 -41 -15 -75 -27 -35 -13 -67 -30 -70 -38 -8 -23 46 -119
100 -174 75 -77 176 -113 303 -110 153 5 276 82 330 207 24 55 27 176 6 235
-19 52 -106 146 -145 156 -30 7 -34 22 -9 31 35 13 84 67 109 120 22 45 26 63
22 120 -5 81 -27 132 -84 189 -87 89 -212 124 -343 98z"/>
<path d="M4879 3917 c-198 -284 -216 -311 -249 -372 -166 -301 20 -637 347
-627 240 7 410 231 356 467 -18 78 -51 132 -113 188 -81 73 -178 94 -282 62
-27 -8 -48 -11 -48 -6 0 4 11 23 25 42 14 19 31 43 39 54 8 11 53 73 100 137
l85 118 -52 38 c-100 74 -81 83 -208 -101z m152 -425 c45 -18 97 -71 115 -117
53 -140 -44 -285 -193 -287 -122 -2 -213 91 -213 216 0 77 67 166 145 193 35
12 108 10 146 -5z"/>
<path d="M1826 3942 c-88 -62 -162 -115 -164 -117 -8 -7 80 -135 92 -135 6 1
47 27 91 60 l80 59 3 -72 c1 -40 3 -234 5 -432 l2 -359 87 -1 86 0 0 553 c0
409 -3 552 -11 553 -7 1 -34 2 -61 3 -47 1 -56 -4 -210 -112z"/>
<path d="M3314 3784 c-88 -43 -90 -187 -3 -231 13 -7 45 -13 72 -13 40 0 53 5
82 33 27 25 35 42 39 77 6 52 -15 104 -51 127 -33 22 -102 25 -139 7z"/>
<path d="M3320 3198 c-40 -13 -74 -73 -73 -126 3 -77 57 -127 137 -124 73 3
121 55 121 131 -1 51 -32 104 -69 116 -33 12 -88 13 -116 3z"/>
</g>
</svg>
