<?xml version="1.0" standalone="no"?>
<!DOCTYPE svg PUBLIC "-//W3C//DTD SVG 20010904//EN"
 "http://www.w3.org/TR/2001/REC-SVG-20010904/DTD/svg10.dtd">
<svg version="1.0" xmlns="http://www.w3.org/2000/svg"
 width="700.000000pt" height="700.000000pt" viewBox="0 0 700.000000 700.000000"
 preserveAspectRatio="xMidYMid meet">
<metadata>
Created by potrace 1.14, written by Peter Selinger 2001-2017
</metadata>
<g transform="translate(0.000000,700.000000) scale(0.100000,-0.100000)"
fill="#000000" stroke="none">
<path d="M3350 6414 c-347 -23 -629 -84 -920 -201 -811 -323 -1420 -968 -1700
-1798 -194 -577 -194 -1253 0 -1830 369 -1095 1317 -1860 2460 -1986 144 -16
481 -16 620 0 686 78 1308 381 1780 867 638 658 927 1558 794 2474 -88 608
-400 1214 -850 1650 -238 231 -476 396 -787 545 -295 141 -564 220 -882 259
-123 15 -417 27 -515 20z m286 -612 c23 -12 60 -42 82 -67 54 -62 76 -128 70
-214 -8 -107 -58 -185 -150 -236 -47 -27 -62 -30 -138 -30 -90 0 -133 15 -197
69 -78 65 -114 209 -79 314 28 82 103 156 186 183 47 16 181 4 226 -19z m-10
-1162 c50 -21 106 -76 136 -133 23 -42 23 -45 26 -547 l3 -505 344 -345 c389
-390 390 -391 390 -521 -1 -65 -5 -85 -30 -135 -72 -140 -240 -195 -381 -124
-49 24 -120 90 -420 392 l-361 363 -47 95 c-75 152 -76 163 -75 745 0 544 0
546 50 621 32 47 115 102 169 113 58 12 144 4 196 -19z m-2032 -880 c54 -27
95 -70 128 -133 18 -34 23 -58 23 -127 0 -77 -3 -90 -31 -140 -92 -164 -309
-201 -449 -78 -73 64 -90 106 -90 218 0 79 4 102 22 136 28 53 102 118 156
138 63 23 180 16 241 -14z m4048 14 c58 -19 120 -73 156 -132 24 -42 27 -56
27 -142 0 -86 -3 -100 -27 -142 -96 -162 -308 -197 -455 -74 -71 60 -110 195
-84 291 44 162 221 255 383 199z m-2016 -2052 c100 -51 154 -132 162 -242 8
-119 -43 -217 -146 -278 -42 -24 -56 -27 -142 -27 -86 0 -100 3 -142 27 -219
130 -191 445 49 534 54 20 167 13 219 -14z"/>
</g>
</svg>
